<svg id="FLIPPERS" height="512" viewBox="0 0 128 128" width="512" xmlns="http://www.w3.org/2000/svg"><path d="m6.5 79.617c2.5 0 3.69 1.115 5.192 2.527 1.646 1.547 3.7 3.473 7.578 3.473s5.939-1.927 7.588-3.475c1.5-1.411 2.69-2.525 5.192-2.525s3.693 1.115 5.2 2.526a10.727 10.727 0 0 0 5.794 3.323h.009c.247.044.508.076.773.1.1.009.195.013.293.02.058 0 .115.01.174.012.18.009.357.022.543.022 3.882 0 5.931-1.926 7.578-3.473 1.5-1.412 2.689-2.527 5.192-2.527s3.69 1.115 5.192 2.527c1.646 1.547 3.7 3.473 7.578 3.473s5.939-1.926 7.588-3.474c1.5-1.407 2.682-2.519 5.192-2.526s3.689 1.114 5.192 2.525c1.648 1.548 3.7 3.475 7.588 3.475s5.938-1.925 7.586-3.472c1.505-1.413 2.694-2.528 5.2-2.528s3.689 1.114 5.192 2.525c1.648 1.548 3.7 3.475 7.588 3.475a1.75 1.75 0 0 0 0-3.5c-2.5 0-3.689-1.114-5.192-2.525-1.648-1.548-3.7-3.475-7.587-3.475s-5.948 1.927-7.6 3.476c-1.5 1.41-2.69 2.524-5.191 2.524s-3.691-1.12-5.194-2.528a11.717 11.717 0 0 0 -4.747-3.061 59.513 59.513 0 0 0 3.419-6.671 35.2 35.2 0 0 0 1.54-4.28 28.754 28.754 0 0 0 .79-3.88c1.515-11.916-7.111-17.311-16.553-20.343l3.575-14.877a1.75 1.75 0 0 0 -1.29-2.11l-7.77-1.88a1.751 1.751 0 0 0 -2.113 1.291l-3.589 14.875c-9.831-1.614-20-.72-24.048 10.693a27.688 27.688 0 0 0 -1.01 3.69 32.085 32.085 0 0 0 -.6 4.63 81.739 81.739 0 0 0 2.376 22.892c-.352-.3-.7-.621-1.075-.971-1.649-1.547-3.7-3.474-7.592-3.474s-5.939 1.927-7.587 3.475c-1.5 1.411-2.69 2.525-5.192 2.525s-3.683-1.116-5.183-2.522c-1.648-1.549-3.7-3.477-7.589-3.477a1.75 1.75 0 0 0 0 3.5zm69.062-.025c-1.5 1.411-2.69 2.525-5.192 2.525s-3.681-1.117-5.181-2.523c-1.648-1.549-3.7-3.477-7.589-3.477s-5.941 1.928-7.589 3.477c-1.5 1.41-2.685 2.523-5.181 2.523-.041 0-.073-.009-.113-.009a82.849 82.849 0 0 1 -2.953-22.12l43.56 10.39a63.068 63.068 0 0 1 -3.2 5.781l.012.021a10.524 10.524 0 0 0 -6.574 3.412zm11.171-12.476-44.773-10.686a25.792 25.792 0 0 1 .4-2.67c.126-.611.269-1.193.426-1.759l45.225 10.799q-.178.9-.431 1.842c-.228.799-.523 1.631-.847 2.474zm-16.152-40.816 4.37 1.058-3.128 13.015q-1.1-.292-2.183-.553t-2.2-.505zm-1.761 16.92c13.71 3.3 19.59 7.96 19.59 15.77 0 .1-.008.2-.01.3l-44.389-10.59c3.489-7.258 10.868-8.845 24.809-5.48z"/><path d="m121.5 92.069c-2.5 0-3.691-1.114-5.195-2.526-1.649-1.548-3.7-3.474-7.59-3.474s-5.941 1.927-7.59 3.474c-1.5 1.412-2.691 2.526-5.194 2.526s-3.688-1.114-5.19-2.525c-1.648-1.548-3.7-3.475-7.586-3.475s-5.94 1.931-7.588 3.475c-1.5 1.411-2.69 2.525-5.192 2.525s-3.688-1.114-5.19-2.525c-1.648-1.548-3.7-3.475-7.586-3.475s-5.936 1.931-7.584 3.475c-1.5 1.411-2.688 2.525-5.188 2.525s-3.688-1.114-5.19-2.525c-1.648-1.548-3.7-3.475-7.586-3.475s-5.939 1.931-7.587 3.475c-1.5 1.411-2.688 2.525-5.189 2.525s-3.687-1.114-5.189-2.525c-1.649-1.544-3.699-3.475-7.586-3.475a1.75 1.75 0 0 0 0 3.5c2.5 0 3.687 1.114 5.189 2.525 1.648 1.548 3.7 3.475 7.586 3.475s5.938-1.927 7.586-3.475c1.5-1.411 2.689-2.525 5.19-2.525s3.688 1.114 5.19 2.525c1.648 1.548 3.7 3.475 7.586 3.475s5.937-1.927 7.584-3.475c1.5-1.411 2.688-2.525 5.188-2.525s3.688 1.114 5.189 2.525c1.648 1.548 3.7 3.475 7.586 3.475s5.939-1.927 7.587-3.475c1.5-1.411 2.69-2.525 5.192-2.525s3.688 1.114 5.189 2.525c1.648 1.548 3.7 3.475 7.586 3.475s5.941-1.926 7.59-3.474c1.5-1.412 2.691-2.526 5.195-2.526s3.691 1.114 5.194 2.526c1.649 1.547 3.7 3.474 7.59 3.474a1.75 1.75 0 0 0 0-3.5z"/><path d="m121.5 102.021c-2.5 0-3.691-1.114-5.195-2.526-1.649-1.548-3.7-3.474-7.59-3.474s-5.941 1.927-7.59 3.474c-1.5 1.412-2.691 2.526-5.194 2.526s-3.688-1.114-5.19-2.525c-1.648-1.548-3.7-3.475-7.586-3.475s-5.939 1.927-7.588 3.475c-1.5 1.411-2.69 2.525-5.192 2.525s-3.688-1.114-5.19-2.525c-1.648-1.548-3.7-3.475-7.586-3.475s-5.937 1.927-7.584 3.475c-1.5 1.411-2.688 2.525-5.188 2.525s-3.688-1.114-5.19-2.525c-1.648-1.548-3.7-3.475-7.586-3.475s-5.938 1.927-7.586 3.475c-1.5 1.411-2.688 2.525-5.189 2.525s-3.687-1.114-5.189-2.525c-1.648-1.548-3.7-3.475-7.585-3.475a1.75 1.75 0 0 0 0 3.5c2.5 0 3.687 1.114 5.189 2.525 1.648 1.548 3.7 3.475 7.586 3.475s5.938-1.927 7.586-3.475c1.5-1.411 2.689-2.525 5.19-2.525s3.688 1.114 5.19 2.525c1.648 1.548 3.7 3.475 7.586 3.475s5.937-1.927 7.584-3.475c1.5-1.411 2.688-2.525 5.188-2.525s3.688 1.114 5.189 2.525c1.648 1.548 3.7 3.475 7.586 3.475s5.939-1.927 7.587-3.475c1.5-1.411 2.69-2.525 5.192-2.525s3.688 1.114 5.189 2.525c1.648 1.548 3.7 3.475 7.586 3.475s5.941-1.926 7.59-3.474c1.5-1.412 2.691-2.526 5.195-2.526s3.691 1.114 5.194 2.526c1.649 1.547 3.7 3.474 7.59 3.474a1.75 1.75 0 0 0 0-3.5z"/></svg>