<?xml version="1.0" encoding="iso-8859-1"?>
<!-- Generator: Adobe Illustrator 19.0.0, SVG Export Plug-In . SVG Version: 6.00 Build 0)  -->
<svg version="1.1" id="Layer_1" xmlns="http://www.w3.org/2000/svg" xmlns:xlink="http://www.w3.org/1999/xlink" x="0px" y="0px"
	 viewBox="0 0 512 512" style="enable-background:new 0 0 512 512;" xml:space="preserve">
<g>
	<g>
		<path d="M495.304,478.609H300.522v-69.654c19.433-6.892,33.391-25.45,33.391-47.215V261.565c0-21.766-13.959-40.323-33.391-47.215
			V128c0-9.22-7.475-16.696-16.696-16.696c-9.22,0-16.696,7.475-16.696,16.696v86.35c-19.433,6.892-33.391,25.45-33.391,47.215
			v100.174c0,21.766,13.959,40.323,33.391,47.215v69.654H33.391V16.696C33.391,7.475,25.916,0,16.696,0S0,7.475,0,16.696v478.609
			C0,504.525,7.475,512,16.696,512h478.609c9.22,0,16.696-7.475,16.696-16.696S504.525,478.609,495.304,478.609z M283.826,378.435
			c-9.206,0-16.696-7.49-16.696-16.696V261.565c0-9.206,7.49-16.696,16.696-16.696c9.206,0,16.696,7.49,16.696,16.696v100.174
			C300.522,370.945,293.032,378.435,283.826,378.435z"/>
	</g>
</g>
<g>
	<g>
		<path d="M166.957,114.176v-97.48c0-9.22-7.475-16.696-16.696-16.696s-16.696,7.475-16.696,16.696v97.48
			c-19.433,6.892-33.391,25.45-33.391,47.215v100.174c0,21.766,13.959,40.323,33.391,47.215v86.35
			c0,9.22,7.475,16.696,16.696,16.696s16.696-7.475,16.696-16.696v-86.35c19.433-6.892,33.391-25.45,33.391-47.215V161.391
			C200.348,139.626,186.389,121.068,166.957,114.176z M166.957,261.565c0,9.206-7.49,16.696-16.696,16.696
			s-16.696-7.49-16.696-16.696V161.391c0-9.206,7.49-16.696,16.696-16.696s16.696,7.49,16.696,16.696V261.565z"/>
	</g>
</g>
<g>
	<g>
		<path d="M434.087,114.176v-97.48c0-9.22-7.475-16.696-16.696-16.696s-16.696,7.475-16.696,16.696v97.48
			c-19.433,6.892-33.391,25.45-33.391,47.215v100.174c0,21.766,13.959,40.323,33.391,47.215v86.35
			c0,9.22,7.475,16.696,16.696,16.696s16.696-7.475,16.696-16.696v-86.35c19.433-6.892,33.391-25.45,33.391-47.215V161.391
			C467.478,139.626,453.52,121.068,434.087,114.176z M434.087,261.565c0,9.206-7.49,16.696-16.696,16.696
			s-16.696-7.49-16.696-16.696V161.391c0-9.206,7.49-16.696,16.696-16.696s16.696,7.49,16.696,16.696V261.565z"/>
	</g>
</g>
<g>
</g>
<g>
</g>
<g>
</g>
<g>
</g>
<g>
</g>
<g>
</g>
<g>
</g>
<g>
</g>
<g>
</g>
<g>
</g>
<g>
</g>
<g>
</g>
<g>
</g>
<g>
</g>
<g>
</g>
</svg>
